<svg width="50" height="48" viewBox="0 0 50 48" fill="none" xmlns="http://www.w3.org/2000/svg">
<g clip-path="url(#clip0)">
<path fill-rule="evenodd" clip-rule="evenodd" d="M39.6824 26.5265C36.9756 26.5269 34.3799 27.6025 32.4662 29.5168C30.5525 31.431 29.4776 34.0271 29.478 36.7338C29.4784 39.4406 30.554 42.0364 32.4682 43.9501C34.3825 45.8638 36.9786 46.9386 39.6853 46.9383C42.3921 46.9379 44.9878 45.8622 46.9015 43.948C48.8152 42.0337 49.8901 39.4377 49.8897 36.7309C49.8893 34.0241 48.8137 31.4284 46.8995 29.5147C44.9852 27.601 42.3891 26.5261 39.6824 26.5265ZM39.803 44.4618C38.7914 44.4657 37.789 44.2702 36.8529 43.8867C35.9169 43.5032 35.0656 42.939 34.3475 42.2265C33.6295 41.5139 33.0589 40.6669 32.6682 39.7338C32.2775 38.8007 32.0745 37.7998 32.0706 36.7883C32.0792 34.7455 32.8985 32.7898 34.3484 31.3509C35.7983 29.912 37.7603 29.1077 39.803 29.1147C44.0765 29.1147 47.5441 32.553 47.5441 36.7883C47.5441 41.0265 44.0765 44.4618 39.803 44.4618Z" fill="#5CC16C"/>
<path fill-rule="evenodd" clip-rule="evenodd" d="M13.2704 0.231568C10.5972 0.232348 8.03377 1.29503 6.14407 3.18584C4.25436 5.07665 3.19317 7.64069 3.19395 10.3139C3.19473 12.9871 4.25742 15.5506 6.14823 17.4403C8.03903 19.33 10.6031 20.3912 13.2763 20.3904C15.9495 20.3896 18.513 19.3269 20.4027 17.4361C22.2924 15.5453 23.3536 12.9813 23.3528 10.308C23.352 7.63481 22.2893 5.07138 20.3985 3.18168C18.5077 1.29197 15.9437 0.230788 13.2704 0.231568ZM13.2704 17.9257C11.2883 17.8706 9.40583 17.0445 8.02333 15.623C6.64083 14.2015 5.86734 12.2968 5.86734 10.3139C5.86734 8.33102 6.64083 6.42633 8.02333 5.00486C9.40583 3.58339 11.2883 2.75726 13.2704 2.70216C15.2887 2.70293 17.2242 3.50464 18.6519 4.93123C20.0796 6.35783 20.8828 8.29269 20.8851 10.311C20.8836 12.33 20.0808 14.266 18.6531 15.6937C17.2254 17.1214 15.2895 17.9241 13.2704 17.9257Z" fill="#5CC16C"/>
<path fill-rule="evenodd" clip-rule="evenodd" d="M23.5471 29.3235L20.8824 26.6558L13.353 34.1882L5.8206 26.6558L3.15296 29.3235L10.6853 36.8558L3.15296 44.3823L5.8206 47.047L13.353 39.5235L20.8824 47.047L23.5471 44.3823L16.0177 36.8558L23.5471 29.3235Z" fill="#5CC16C"/>
<path fill-rule="evenodd" clip-rule="evenodd" d="M50.1676 2.7235L47.4853 0.038208L39.9058 7.61762L32.3294 0.038208L29.65 2.7235L37.2264 10.3L29.65 17.8706L32.3294 20.5529L39.9058 12.9794L47.4853 20.5529L50.1676 17.8706L42.5911 10.3L50.1676 2.7235Z" fill="#5CC16C"/>
</g>
<defs>
<clipPath id="clip0">
<rect width="50" height="47.0588" fill="white"/>
</clipPath>
</defs>
</svg>
